<svg width="100" height="100" viewBox="0 0 100 100" xmlns="http://www.w3.org/2000/svg">
<path fill-rule="evenodd" clip-rule="evenodd" d="M6.25 50C6.25 49.1712 6.57924 48.3763 7.16529 47.7903C7.75134 47.2042 8.5462 46.875 9.375 46.875H83.0813L63.4125 27.2125C62.8257 26.6257 62.4961 25.8298 62.4961 25C62.4961 24.1702 62.8257 23.3743 63.4125 22.7875C63.9993 22.2007 64.7952 21.8711 65.625 21.8711C66.4548 21.8711 67.2507 22.2007 67.8375 22.7875L92.8375 47.7875C93.1285 48.0778 93.3594 48.4226 93.517 48.8023C93.6745 49.1819 93.7556 49.589 93.7556 50C93.7556 50.411 93.6745 50.818 93.517 51.1977C93.3594 51.5774 93.1285 51.9222 92.8375 52.2125L67.8375 77.2125C67.2507 77.7993 66.4548 78.1289 65.625 78.1289C64.7952 78.1289 63.9993 77.7993 63.4125 77.2125C62.8257 76.6257 62.4961 75.8298 62.4961 75C62.4961 74.1701 62.8257 73.3743 63.4125 72.7875L83.0813 53.125H9.375C8.5462 53.125 7.75134 52.7958 7.16529 52.2097C6.57924 51.6237 6.25 50.8288 6.25 50Z"/>
</svg>
